<svg width="400" height="300" viewBox="0 0 400 300" fill="none" xmlns="http://www.w3.org/2000/svg">
  <!-- Background gradient -->
  <defs>
    <linearGradient id="bg" x1="0%" y1="0%" x2="100%" y2="100%">
      <stop offset="0%" style="stop-color:#e8f5e8;stop-opacity:1" />
      <stop offset="100%" style="stop-color:#f0f8ff;stop-opacity:1" />
    </linearGradient>
    <linearGradient id="leaf1" x1="0%" y1="0%" x2="100%" y2="100%">
      <stop offset="0%" style="stop-color:#7fb069;stop-opacity:1" />
      <stop offset="100%" style="stop-color:#a8c09a;stop-opacity:1" />
    </linearGradient>
  </defs>
  
  <!-- Background -->
  <rect width="400" height="300" fill="url(#bg)"/>
  
  <!-- Abstract wellness shapes -->
  <circle cx="80" cy="60" r="25" fill="#d4f1d4" opacity="0.8"/>
  <circle cx="320" cy="80" r="35" fill="#87ceeb" opacity="0.6"/>
  <circle cx="350" cy="220" r="20" fill="#a8c09a" opacity="0.7"/>
  
  <!-- Leaves -->
  <path d="M60 150 Q80 130 100 150 Q80 170 60 150" fill="url(#leaf1)"/>
  <path d="M280 180 Q300 160 320 180 Q300 200 280 180" fill="#7fb069"/>
  <path d="M150 80 Q170 60 190 80 Q170 100 150 80" fill="#a8c09a"/>
  
  <!-- Wellness symbols -->
  <circle cx="200" cy="150" r="50" fill="#f9f7f4" stroke="#7fb069" stroke-width="3"/>
  <path d="M200 120 L200 180 M170 150 L230 150" stroke="#4a90a4" stroke-width="3" stroke-linecap="round"/>
  
  <!-- Floating elements -->
  <circle cx="120" cy="220" r="8" fill="#87ceeb" opacity="0.8"/>
  <circle cx="300" cy="120" r="6" fill="#7fb069" opacity="0.9"/>
  <circle cx="150" cy="200" r="5" fill="#a8c09a" opacity="0.7"/>
</svg> 